<?xml version="1.0" encoding="utf-8"?>
<!-- Generator: Adobe Illustrator 17.0.0, SVG Export Plug-In . SVG Version: 6.00 Build 0)  -->
<!DOCTYPE svg PUBLIC "-//W3C//DTD SVG 1.1//EN" "http://www.w3.org/Graphics/SVG/1.1/DTD/svg11.dtd">
<svg version="1.1" id="logo_x5F_krunch" xmlns="http://www.w3.org/2000/svg" xmlns:xlink="http://www.w3.org/1999/xlink" x="0px"
	 y="0px" width="1098.108px" height="108.971px" viewBox="0 0 1098.108 108.971" enable-background="new 0 0 1098.108 108.971"
	 xml:space="preserve">
<g id="krunch_x5F_ltd">
	<g>
		<path fill="#FFFFFF" d="M69.217,107.701l-27.49-44.969v44.969H0V1.974h41.727v46.942L68.512,4.792h42.997L82.186,49.621
			l32.563,58.08H69.217z"/>
		<path fill="#FFFFFF" d="M194.107,107.701l-28.898-42.996v42.996h-38.345V1.974h50.187c31.014,0,55.12,7.471,55.12,34.819
			c0,14.378-5.498,23.684-23.965,31.296l30.31,39.612H194.107z M165.068,25.092v26.644h12.405c12.688,0,14.661-4.512,14.661-13.534
			c0-9.022-2.538-13.11-14.661-13.11H165.068z"/>
		<path fill="#FFFFFF" d="M251.054,70.768V1.974h38.484v68.512c0,9.163,5.779,13.25,16.494,13.25
			c11.278,0,16.071-3.945,16.071-13.25V1.974h38.205v68.795c0,27.911-21.429,38.202-54.275,38.202
			C273.188,108.971,251.054,98.821,251.054,70.768z"/>
		<path fill="#FFFFFF" d="M458.275,107.701c-15.225-16.916-31.014-33.551-46.521-53.004l-4.653,1.833l0.283,13.533v37.638h-33.551
			V1.974h32.001l41.304,48.917l4.372-1.834l-0.425-13.532V1.974h33.411v105.727H458.275z"/>
		<path fill="#FFFFFF" d="M497.033,54.556C497.033,19.312,517.476,0,561.316,0c8.317,0,18.327,1.691,25.938,5.075V29.04
			c-7.752-2.256-15.787-3.243-23.26-3.243c-25.798,0-25.938,13.11-25.938,28.759c0,16.353,0.141,30.026,26.643,30.026
			c7.33,0,14.943-0.987,22.555-3.102v23.261c-9.443,2.96-19.31,4.229-29.181,4.229C514.795,108.971,497.033,88.811,497.033,54.556z"
			/>
		<path fill="#FFFFFF" d="M671.409,107.701V67.385h-32.422v40.316H600.36V1.974h38.627v39.612h32.422V1.974h38.627v105.727H671.409z
			"/>
		<path fill="#FFFFFF" d="M778.257,107.701V1.974h39.612v79.931h46.38v25.797H778.257z"/>
		<path fill="#FFFFFF" d="M942.2,27.912v79.789h-39.189V27.912h-31.156V1.974h100.937v25.938H942.2z"/>
		<path fill="#FFFFFF" d="M986.036,107.701V1.974h51.878c43.56,0,60.193,16.775,60.193,52.3c0,34.819-16.493,53.428-59.488,53.428
			H986.036z M1057.509,45.11c-0.142-2.96-0.564-5.921-1.691-8.458c-2.398-5.639-7.895-9.023-18.046-9.023h-13.391v54.698h13.391
			c10.857,0,16.212-3.807,18.468-9.869c0.986-2.678,1.41-5.778,1.553-8.881c0-3.101-0.283-6.342-0.283-9.444
			C1057.509,51.03,1057.792,47.93,1057.509,45.11z"/>
	</g>
</g>
</svg>
