<?xml version="1.0" encoding="utf-8"?>
<!-- Generator: Adobe Illustrator 17.0.0, SVG Export Plug-In . SVG Version: 6.00 Build 0)  -->
<!DOCTYPE svg PUBLIC "-//W3C//DTD SVG 1.1//EN" "http://www.w3.org/Graphics/SVG/1.1/DTD/svg11.dtd">
<svg version="1.1" id="logo_x5F_krunch" xmlns="http://www.w3.org/2000/svg" xmlns:xlink="http://www.w3.org/1999/xlink" x="0px"
	 y="0px" width="1098.114px" height="1098.114px" viewBox="0 0 1098.114 1098.114" enable-background="new 0 0 1098.114 1098.114"
	 xml:space="preserve">
<g id="krunch_x5F_ltd">
	<g>
		<path d="M69.217,1254.552l-27.49-44.969v44.969H0v-105.728h41.727v46.942l26.785-44.124h42.997l-29.322,44.829l32.563,58.08
			H69.217z"/>
		<path d="M194.107,1254.552l-28.898-42.996v42.996h-38.345v-105.728h50.187c31.014,0,55.12,7.471,55.12,34.819
			c0,14.378-5.498,23.684-23.965,31.296l30.31,39.612H194.107z M165.068,1171.943v26.645h12.405
			c12.688,0,14.661-4.512,14.661-13.534s-2.538-13.11-14.661-13.11H165.068z"/>
		<path d="M251.054,1217.62v-68.795h38.484v68.512c0,9.163,5.779,13.25,16.494,13.25c11.278,0,16.071-3.945,16.071-13.25v-68.512
			h38.205v68.795c0,27.911-21.429,38.202-54.275,38.202C273.188,1255.822,251.054,1245.672,251.054,1217.62z"/>
		<path d="M458.275,1254.552c-15.225-16.916-31.014-33.551-46.521-53.004l-4.653,1.833l0.283,13.533v37.638h-33.551v-105.728h32.001
			l41.304,48.917l4.372-1.834l-0.425-13.532v-33.551h33.411v105.728H458.275z"/>
		<path d="M497.033,1201.407c0-35.243,20.442-54.556,64.283-54.556c8.317,0,18.327,1.691,25.938,5.075v23.965
			c-7.752-2.256-15.787-3.243-23.26-3.243c-25.798,0-25.938,13.11-25.938,28.759c0,16.353,0.141,30.026,26.643,30.026
			c7.33,0,14.943-0.987,22.555-3.102v23.261c-9.443,2.96-19.31,4.229-29.181,4.229
			C514.795,1255.822,497.033,1235.663,497.033,1201.407z"/>
		<path d="M671.409,1254.552v-40.316h-32.422v40.316H600.36v-105.728h38.627v39.612h32.422v-39.612h38.627v105.728H671.409z"/>
		<path d="M778.257,1254.552v-105.728h39.612v79.931h46.38v25.797H778.257z"/>
		<path d="M942.2,1174.763v79.789h-39.189v-79.789h-31.156v-25.938h100.937v25.938H942.2z"/>
		<path d="M986.036,1254.552v-105.728h51.878c43.56,0,60.193,16.775,60.193,52.3c0,34.819-16.493,53.428-59.488,53.428H986.036z
			 M1057.509,1191.961c-0.142-2.96-0.564-5.921-1.691-8.458c-2.398-5.639-7.895-9.023-18.046-9.023h-13.391v54.698h13.391
			c10.857,0,16.212-3.807,18.468-9.869c0.986-2.678,1.41-5.778,1.553-8.881c0-3.101-0.283-6.342-0.283-9.444
			S1057.792,1194.781,1057.509,1191.961z"/>
	</g>
</g>
<g id="bg_1_">
	<rect id="bg" x="0" y="0" width="1098.114" height="1098.114"/>
	<polygon id="bg_x5F_2" fill="#5F5E5D" points="250.583,760.749 250.583,1098.114 994.063,1098.114 666.166,551.103 	"/>
</g>
<g id="K">
	<polygon id="bottom" fill="#FFFFFF" stroke="#FFFFFF" points="250.583,760.749 250.583,1098.114 317.374,1098.114 317.374,803.419 
		645.756,643.867 918.305,1098.114 994.063,1098.114 666.166,551.103 	"/>
	<polygon id="top" fill="#FFFFFF" stroke="#FFFFFF" points="960.383,0 822.289,0 317.374,259.927 317.374,0 250.583,0 
		250.583,373.1 	"/>
</g>
</svg>
